<svg width="220" height="90" viewBox="0 0 220 90" xmlns="http://www.w3.org/2000/svg">
<path fill-rule="evenodd" clip-rule="evenodd" d="M6.72152 81.9343C6.44969 81.3623 6.07419 80.8798 5.60366 80.4995C5.1366 80.1232 4.5889 79.8375 3.9767 79.6517C3.37084 79.4683 2.71429 79.3754 2.02723 79.3754H0V88.596H1.99267C2.69644 88.596 3.36565 88.5008 3.98304 88.3126C4.60848 88.1233 5.16021 87.8336 5.62325 87.4521C6.08974 87.0672 6.46178 86.5742 6.729 85.9866C6.99508 85.4019 7.12984 84.7132 7.12984 83.9392C7.12984 83.1792 6.99277 82.5044 6.72152 81.9343ZM1.54346 80.838H1.69319C2.22419 80.838 2.73848 80.8932 3.2211 81.0012C3.68759 81.1063 4.10225 81.2839 4.45298 81.529C4.79681 81.7694 5.0744 82.0922 5.27827 82.4905C5.48272 82.8883 5.58639 83.3917 5.58639 83.9857C5.58639 84.5803 5.48272 85.0837 5.27827 85.4808C5.0744 85.8792 4.79681 86.202 4.45298 86.4424C4.1034 86.6874 3.68874 86.8651 3.2211 86.9702C2.74079 87.0776 2.22649 87.1328 1.69319 87.1328H1.54346V80.838Z" />
<path fill-rule="evenodd" clip-rule="evenodd" d="M15.5267 78.678L11.0213 88.596H12.6915L13.682 86.4006H17.3714L18.3619 88.596H20.0321L15.5267 78.678ZM15.5267 82.206L16.7171 84.9379H14.3363L15.5267 82.206Z" />
<path fill-rule="evenodd" clip-rule="evenodd" d="M30.0576 84.7771C29.9402 84.4769 29.7737 84.2087 29.5635 83.9787C29.355 83.7523 29.1057 83.5554 28.8223 83.3946C28.5476 83.2384 28.2498 83.095 27.9342 82.9678L27.3123 82.7239C27.1815 82.6723 27.0485 82.6119 26.9137 82.5422C26.7882 82.4772 26.6736 82.3994 26.5734 82.3117C26.4778 82.2281 26.3971 82.1305 26.3332 82.0214C26.2773 81.9256 26.2497 81.8158 26.2497 81.6863C26.2497 81.5313 26.2814 81.4001 26.3476 81.2834C26.4161 81.1591 26.506 81.054 26.6212 80.964C26.7386 80.8723 26.8728 80.8003 27.0197 80.7509C27.447 80.6081 27.8951 80.6731 28.1715 80.8485C28.3581 80.9681 28.5251 81.1492 28.6674 81.3879L28.7855 81.587L30.0392 80.8287L29.9292 80.6313C29.6724 80.1708 29.3297 79.8126 28.9122 79.5641C28.2113 79.1472 27.2852 79.0798 26.4645 79.3585C26.1334 79.4706 25.8339 79.6343 25.5753 79.8445C25.3127 80.0588 25.1013 80.3218 24.9452 80.6278C24.7863 80.9385 24.7062 81.2944 24.7062 81.6863C24.7062 82.0196 24.7656 82.3216 24.8819 82.5828C24.9965 82.8401 25.152 83.0683 25.3438 83.261C25.5304 83.4497 25.7515 83.6158 26.0015 83.7534C26.237 83.8847 26.4812 84.006 26.7358 84.1192L27.3359 84.3741C27.5138 84.449 27.6895 84.5327 27.8634 84.6267C28.027 84.7138 28.1744 84.816 28.3023 84.9316C28.4232 85.0396 28.5165 85.1644 28.5885 85.313C28.657 85.4547 28.6916 85.6254 28.6916 85.8205C28.6916 86.022 28.6564 86.2142 28.5868 86.3913C28.5176 86.5684 28.4203 86.7252 28.2976 86.8587C28.1756 86.9923 28.0327 87.0974 27.8617 87.1781C27.5317 87.3348 27.1015 87.3279 26.7479 87.1885C26.5687 87.1194 26.4121 87.0196 26.2814 86.8941C26.1524 86.771 26.0504 86.6201 25.979 86.4453C25.907 86.2699 25.8696 86.0748 25.8696 85.867V85.5807L24.2887 85.9157L24.3169 86.1294C24.3664 86.5034 24.4747 86.857 24.6394 87.181C24.8053 87.5067 25.0178 87.7901 25.2701 88.0241C25.5252 88.2592 25.8224 88.4462 26.1529 88.5792C26.487 88.7133 26.8486 88.7818 27.2287 88.7818C27.6474 88.7818 28.0442 88.7081 28.4082 88.5623C28.7711 88.4172 29.0918 88.2116 29.3631 87.9509C29.6338 87.6908 29.8492 87.3738 30.0035 87.0085C30.1573 86.6445 30.2356 86.2444 30.2356 85.8205C30.2356 85.4297 30.1763 85.0785 30.0576 84.7771Z" />
<path fill-rule="evenodd" clip-rule="evenodd" d="M48.7864 84.7771C48.6689 84.4769 48.5025 84.2087 48.2917 83.9787C48.0838 83.7523 47.8344 83.5554 47.5511 83.3946C47.2764 83.2384 46.9786 83.095 46.663 82.9678L46.041 82.7239C45.9103 82.6723 45.7772 82.6119 45.6425 82.5422C45.5169 82.4772 45.4023 82.3994 45.3021 82.3117C45.2065 82.2281 45.1259 82.1305 45.062 82.0214C45.0061 81.9256 44.9785 81.8158 44.9785 81.6863C44.9785 81.5313 45.0101 81.4001 45.0758 81.2834C45.1449 81.1591 45.2347 81.054 45.3499 80.964C45.4674 80.8723 45.6016 80.8003 45.7479 80.7509C46.1752 80.6081 46.6238 80.6731 46.8997 80.8485C47.0869 80.9681 47.2539 81.1492 47.3956 81.3879L47.5142 81.587L48.768 80.8287L48.658 80.6313C48.4005 80.1708 48.0585 79.8126 47.6409 79.5641C46.94 79.1472 46.0134 79.0798 45.1933 79.3585C44.8621 79.4706 44.5626 79.6343 44.3041 79.8445C44.0414 80.0588 43.8295 80.3218 43.6734 80.6278C43.515 80.9385 43.435 81.2944 43.435 81.6863C43.435 82.0196 43.4943 82.3216 43.6106 82.5828C43.7253 82.8401 43.8808 83.0683 44.0725 83.261C44.2591 83.4497 44.4803 83.6158 44.7297 83.7534C44.9658 83.8847 45.21 84.006 45.4645 84.1192L46.0646 84.3741C46.2426 84.449 46.4182 84.5327 46.5922 84.6267C46.7552 84.7138 46.9026 84.816 47.031 84.9316C47.1514 85.0396 47.2453 85.1644 47.3172 85.313C47.3858 85.4547 47.4203 85.6254 47.4203 85.8205C47.4203 86.022 47.3852 86.2142 47.3155 86.3913C47.2464 86.5684 47.1491 86.7252 47.0264 86.8587C46.9037 86.9923 46.7615 87.0974 46.5904 87.1781C46.2599 87.3348 45.8302 87.3279 45.476 87.1885C45.2975 87.1194 45.1409 87.0196 45.0101 86.8941C44.8811 86.771 44.7792 86.6201 44.7072 86.4453C44.6352 86.2699 44.5983 86.0748 44.5983 85.867V85.5807L43.0175 85.9157L43.0457 86.1294C43.0952 86.5034 43.2035 86.857 43.3682 87.181C43.5341 87.5067 43.7466 87.7901 43.9988 88.0241C44.2539 88.2592 44.5511 88.4462 44.8817 88.5792C45.2157 88.7133 45.5774 88.7818 45.9575 88.7818C46.3762 88.7818 46.773 88.7081 47.137 88.5623C47.4992 88.4172 47.8206 88.2116 48.0919 87.9509C48.3625 87.6908 48.5779 87.3738 48.7323 87.0085C48.886 86.6445 48.9638 86.2444 48.9638 85.8205C48.9638 85.4297 48.9045 85.0785 48.7864 84.7771Z" />
<path fill-rule="evenodd" clip-rule="evenodd" d="M56.2837 81.637C56.5677 81.3362 56.9097 81.0935 57.2991 80.917C58.0172 80.5912 58.8938 80.5628 59.7006 80.8595C60.0698 80.9959 60.4056 81.1957 60.6993 81.4546L61.0811 81.7926V79.8834L60.9694 79.8149C60.6221 79.603 60.2466 79.4444 59.8538 79.3417C58.8143 79.0723 57.7166 79.1657 56.7767 79.5612C56.191 79.8091 55.6727 80.1528 55.235 80.5854C54.7973 81.0197 54.4477 81.5359 54.1955 82.1218C53.9421 82.7106 53.813 83.3528 53.813 84.0321C53.813 84.697 53.9392 85.3258 54.1891 85.9018C54.4373 86.4755 54.7823 86.983 55.2125 87.4091C55.6427 87.8342 56.1518 88.1727 56.7249 88.4148C57.2991 88.6581 57.9199 88.7824 58.5695 88.7824C58.9727 88.7824 59.3868 88.7261 59.8026 88.6175C60.2207 88.5077 60.6123 88.3457 60.9677 88.1344L61.0811 88.0664V86.1219L60.6964 86.4726C60.3963 86.7461 60.0571 86.9586 59.6903 87.102C58.9139 87.4068 58.0063 87.3859 57.2829 87.055C56.8965 86.8779 56.5573 86.6357 56.2722 86.3338C55.9854 86.0313 55.7591 85.6748 55.599 85.2747C55.4377 84.8746 55.3565 84.4444 55.3565 83.9979C55.3565 83.5421 55.4394 83.1066 55.6036 82.703C55.7689 82.2989 55.9975 81.9401 56.2837 81.637Z" />
<path fill-rule="evenodd" clip-rule="evenodd" d="M71.6434 79.3754V82.9057H67.9691V79.3754H66.4256V88.5954H67.9691V84.3921H71.6434V88.5954H73.1869V79.3754H71.6434Z" />
<path fill-rule="evenodd" clip-rule="evenodd" d="M87.4673 82.1212C87.215 81.5435 86.8695 81.0313 86.4399 80.5988C86.0102 80.1662 85.5005 79.8195 84.9229 79.5687C83.7636 79.0659 82.3756 79.0659 81.2163 79.5687C80.6392 79.819 80.1278 80.1656 79.6982 80.5988C79.2703 81.0308 78.9247 81.5429 78.6719 82.1212C78.4179 82.7019 78.2895 83.329 78.2895 83.9857C78.2895 84.665 78.4156 85.3055 78.665 85.889C78.9138 86.4714 79.2582 86.983 79.6884 87.4092C80.1192 87.8348 80.6306 88.1739 81.2065 88.4154C81.7853 88.6587 82.4119 88.7824 83.069 88.7824C83.7261 88.7824 84.3527 88.6587 84.9315 88.4154C85.5086 88.1739 86.0189 87.8348 86.4496 87.4086C86.881 86.983 87.2248 86.4714 87.4731 85.889C87.7224 85.3043 87.8497 84.6644 87.8497 83.9857C87.8497 83.329 87.7207 82.7013 87.4673 82.1212ZM86.3057 83.9857C86.3057 84.4554 86.2193 84.8938 86.0488 85.2933C85.8766 85.6922 85.6393 86.0458 85.3433 86.3408C85.0461 86.6357 84.6977 86.8726 84.3084 87.0416C83.5344 87.3784 82.6054 87.3784 81.8302 87.0416C81.4409 86.8726 81.0919 86.6357 80.7953 86.3402C80.4987 86.0458 80.262 85.6928 80.0904 85.2927C79.9199 84.8938 79.8324 84.4548 79.8324 83.9857C79.8324 83.5374 79.9118 83.1072 80.0696 82.7065C80.2263 82.3082 80.4503 81.954 80.736 81.6561C81.0211 81.3583 81.366 81.1173 81.7623 80.9408C82.1573 80.7654 82.5973 80.676 83.069 80.676C83.5418 80.676 83.9807 80.7654 84.3752 80.9402C84.7714 81.1173 85.1175 81.3577 85.4032 81.6555C85.6871 81.954 85.9112 82.307 86.0684 82.7071C86.2256 83.1066 86.3057 83.5368 86.3057 83.9857Z" />
<path fill-rule="evenodd" clip-rule="evenodd" d="M95.8664 83.5589L100.016 79.3754H97.9461L94.5873 82.8354V79.3754H93.0439V88.5954H94.5873V84.8055L94.7722 84.6285L97.9559 88.5954H100.019L95.8664 83.5589Z" />
<path fill-rule="evenodd" clip-rule="evenodd" d="M112.853 82.1212C112.6 81.5429 112.255 81.0313 111.826 80.5988C111.396 80.1662 110.886 79.8195 110.309 79.5687C109.151 79.0659 107.761 79.0659 106.602 79.5687C106.026 79.819 105.515 80.1656 105.085 80.5988C104.657 81.0308 104.311 81.5429 104.058 82.1212C103.804 82.7019 103.676 83.329 103.676 83.9857C103.676 84.665 103.801 85.3055 104.051 85.889C104.3 86.4714 104.645 86.983 105.075 87.4092C105.506 87.8348 106.017 88.1739 106.593 88.4154C107.171 88.6587 107.798 88.7824 108.455 88.7824C109.113 88.7824 109.739 88.6587 110.317 88.4154C110.894 88.1733 111.405 87.8348 111.836 87.4086C112.266 86.983 112.611 86.472 112.859 85.889C113.109 85.3043 113.236 84.6644 113.236 83.9857C113.236 83.3284 113.106 82.7013 112.853 82.1212ZM111.691 83.9857C111.691 84.4554 111.606 84.8944 111.435 85.2927C111.262 85.6928 111.025 86.0464 110.729 86.3408C110.432 86.6357 110.085 86.8726 109.695 87.0416C108.921 87.3784 107.991 87.3784 107.216 87.0416C106.827 86.8726 106.479 86.6357 106.181 86.3402C105.885 86.0458 105.648 85.6928 105.477 85.2927C105.306 84.8938 105.218 84.4548 105.218 83.9857C105.218 83.5374 105.299 83.1072 105.456 82.7065C105.613 82.3082 105.837 81.954 106.122 81.6561C106.407 81.3583 106.752 81.1173 107.149 80.9408C107.543 80.7654 107.983 80.676 108.455 80.676C108.928 80.676 109.367 80.7654 109.762 80.9402C110.158 81.1173 110.504 81.3577 110.789 81.6555C111.073 81.9534 111.298 82.307 111.455 82.7071C111.612 83.1066 111.691 83.5368 111.691 83.9857Z" />
<path fill-rule="evenodd" clip-rule="evenodd" d="M119.974 87.1328V79.3754H118.43V88.596H122.611V87.1328H119.974Z" />
<path fill-rule="evenodd" clip-rule="evenodd" d="M130.916 78.678L126.411 88.596H128.081L129.072 86.4006H132.76L133.751 88.596H135.422L130.916 78.678ZM130.916 82.206L132.107 84.9379H129.725L130.916 82.206Z" />
<path fill-rule="evenodd" clip-rule="evenodd" d="M146.794 81.9343C146.523 81.3629 146.147 80.8804 145.676 80.4995C145.209 80.1232 144.662 79.8375 144.05 79.6517C143.443 79.4683 142.787 79.3754 142.1 79.3754H140.072V88.596H142.065C142.768 88.596 143.438 88.5008 144.055 88.3126C144.681 88.1233 145.233 87.8336 145.695 87.4521C146.163 87.0672 146.534 86.5742 146.802 85.986C147.068 85.4019 147.202 84.7126 147.202 83.9392C147.202 83.1786 147.065 82.5039 146.794 81.9343ZM141.617 80.838H141.766C142.297 80.838 142.811 80.8932 143.294 81.0012C143.76 81.1063 144.175 81.2839 144.526 81.529C144.869 81.7694 145.146 82.0916 145.35 82.4905C145.555 82.8883 145.659 83.3917 145.659 83.9857C145.659 84.5803 145.555 85.0837 145.35 85.4808C145.146 85.8792 144.869 86.202 144.525 86.4424C144.176 86.6874 143.762 86.8651 143.294 86.9702C142.813 87.0776 142.3 87.1328 141.766 87.1328H141.617V80.838Z" />
<path fill-rule="evenodd" clip-rule="evenodd" d="M157.558 80.838V79.3754H152.431V88.596H157.558V87.1322H153.975V84.2882H157.454V82.8244H153.975V80.838H157.558Z" />
<path fill-rule="evenodd" clip-rule="evenodd" d="M162.936 88.596H164.48V82.4162L170.999 89.3032V79.3754H169.456V85.4965L162.936 78.6095V88.596Z" />
<path fill-rule="evenodd" clip-rule="evenodd" d="M181.815 79.3754V82.9057H178.141V79.3754H176.596V88.5954H178.141V84.3921H181.815V88.5954H183.359V79.3754H181.815Z" />
<path fill-rule="evenodd" clip-rule="evenodd" d="M192.527 78.678L188.021 88.596H189.692L190.682 86.4006H194.371L195.362 88.596H197.032L192.527 78.678ZM192.527 82.206L193.718 84.9379H191.336L192.527 82.206Z" />
<path fill-rule="evenodd" clip-rule="evenodd" d="M206.763 79.3754V84.7748C206.763 85.115 206.734 85.4483 206.675 85.7653C206.62 86.0684 206.519 86.3384 206.377 86.569C206.241 86.789 206.054 86.9673 205.817 87.0968C205.58 87.2286 205.271 87.2948 204.898 87.2948C204.524 87.2948 204.214 87.2286 203.977 87.0968C203.741 86.9667 203.552 86.789 203.418 86.569C203.276 86.3384 203.175 86.0684 203.12 85.7653C203.061 85.4483 203.032 85.115 203.032 84.7748V79.3754H201.488V85.147C201.488 85.651 201.566 86.1277 201.72 86.5649C201.875 87.0056 202.101 87.3952 202.393 87.7233C202.686 88.0525 203.048 88.3138 203.469 88.5002C203.888 88.6877 204.369 88.7824 204.898 88.7824C205.426 88.7824 205.907 88.6877 206.326 88.5002C206.746 88.3144 207.108 88.0531 207.401 87.7233C207.692 87.3964 207.919 87.0068 208.075 86.5649C208.229 86.1277 208.307 85.651 208.307 85.147V79.3754H206.763Z" />
<path fill-rule="evenodd" clip-rule="evenodd" d="M219.233 84.7771C219.115 84.4769 218.95 84.2087 218.738 83.9787C218.531 83.7523 218.281 83.5554 217.998 83.3946C217.723 83.2384 217.425 83.095 217.109 82.9678L216.488 82.7239C216.356 82.6723 216.224 82.6119 216.09 82.5422C215.963 82.4766 215.849 82.3994 215.749 82.3117C215.654 82.2281 215.572 82.1305 215.508 82.0219C215.453 81.9256 215.426 81.8158 215.426 81.6863C215.426 81.5313 215.457 81.3995 215.522 81.2834C215.592 81.1591 215.682 81.054 215.797 80.964C215.914 80.8723 216.048 80.8003 216.194 80.7509C216.621 80.6075 217.07 80.6725 217.346 80.8485C217.533 80.9681 217.7 81.1492 217.843 81.3879L217.961 81.587L219.214 80.8287L219.104 80.6313C218.848 80.1714 218.505 79.8126 218.087 79.5641C217.386 79.1472 216.46 79.0798 215.639 79.3585C215.308 79.4712 215.009 79.6349 214.75 79.8445C214.488 80.0588 214.276 80.3218 214.12 80.6278C213.962 80.939 213.881 81.295 213.881 81.6863C213.881 82.019 213.941 82.321 214.057 82.5823C214.171 82.8389 214.327 83.0677 214.518 83.261C214.705 83.4492 214.926 83.6152 215.176 83.7534C215.413 83.8847 215.657 84.006 215.912 84.1192L216.511 84.3741C216.689 84.449 216.865 84.5327 217.038 84.6267C217.202 84.7138 217.349 84.816 217.478 84.9316C217.598 85.0396 217.692 85.1644 217.764 85.313C217.832 85.4547 217.867 85.6254 217.867 85.8205C217.867 86.022 217.832 86.2142 217.762 86.3913C217.693 86.5678 217.596 86.7252 217.473 86.8587C217.35 86.9923 217.208 87.0974 217.037 87.1781C216.706 87.336 216.277 87.3279 215.923 87.1885C215.745 87.1194 215.587 87.0196 215.457 86.8941C215.328 86.771 215.226 86.6195 215.154 86.4453C215.082 86.2699 215.045 86.0748 215.045 85.867V85.5807L213.464 85.9157L213.492 86.1294C213.542 86.5039 213.65 86.857 213.815 87.181C213.981 87.5067 214.194 87.7907 214.445 88.0241C214.7 88.2592 214.997 88.4462 215.328 88.5792C215.662 88.7133 216.024 88.7818 216.404 88.7818C216.822 88.7818 217.219 88.7081 217.583 88.5623C217.946 88.4172 218.268 88.2116 218.538 87.9515C218.809 87.6914 219.025 87.3738 219.179 87.0085C219.333 86.6433 219.411 86.2432 219.411 85.8205C219.411 85.4297 219.351 85.0785 219.233 84.7771Z" />
<path fill-rule="evenodd" clip-rule="evenodd" d="M186.957 56.5095C186.675 55.721 186.11 56.1159 184.887 56.3452C180.515 57.1308 178.957 51.8563 176.517 47.1675C174.951 44.1586 172.986 39.6476 170.416 38.7302C166.789 37.4284 163.61 40.9146 163.258 41.2444L176.101 24.5479C177.318 22.9413 178.295 21.4554 178.321 19.4214C178.347 17.719 177.718 15.959 175.264 14.8697C173.397 14.0417 171.507 14.2287 169.907 15.1223C168.028 16.1721 166.795 18.0221 165.909 20.6402C164.648 24.3656 158.744 41.5603 158.744 41.5603C157.731 44.1871 152.176 50.562 148.453 52.9699C142.339 56.9363 139.956 53.3404 142.578 48.0925L142.581 48.0914C145.108 42.7831 147.213 42.1252 148.502 42.1252C148.946 42.1252 148.984 42.3569 148.9 42.7006C148.727 43.3939 148.701 44.3764 149.898 44.7207C151.828 45.2683 153.399 43.8195 153.399 42.1606C153.399 40.1696 151.516 38.7633 148.39 38.7633C142.78 38.7633 137.797 44.9425 135.876 50.6677C135.053 52.9479 133.868 53.388 133.238 53.388C133.108 53.388 132.971 53.3462 132.981 53.1459C133.182 48.1819 133.008 45.4843 132.404 41.5951C132.043 39.2673 130.27 38.7668 128.697 38.7668C125.981 38.7668 124.365 39.6006 123.108 41.3594C119.368 46.5985 116.848 49.7839 113.13 53.5668C112.473 54.2363 111.937 54.5017 111.433 54.2363C110.987 54.0029 110.983 53.5378 111.322 52.6924L115.911 41.2177C116.415 40.1069 115.483 39.1332 114.162 39.1332C112.497 39.1332 111.509 39.6772 111.038 40.788C110.623 41.7676 108.926 46.1723 106.86 50.3785C105.086 53.9948 102.767 54.9563 100.871 54.5894C99.1785 54.2532 98.2323 52.8544 99.3795 50.1799C99.3795 50.1799 102.399 42.3255 102.832 41.1561C103.244 40.0332 102.309 39.1308 101.094 39.1308C100.179 39.1308 98.6251 39.2383 97.9904 40.7816C96.9797 43.2482 93.7966 51.5839 92.7905 53.1917C92.1708 54.18 91.6507 54.6933 90.9827 54.6132C90.4379 54.5487 90.2196 53.935 90.3319 52.7098C90.3319 52.7098 90.9216 47.5409 91.0898 45.4372C91.4025 41.5603 90.4044 38.7668 85.667 38.7668C77.9641 38.7668 72.7296 46.1276 70.5728 50.5794C69.8172 52.2348 68.9504 53.298 67.7312 53.3723C66.4993 53.449 65.1551 52.092 63.9278 48.6703C63.9163 48.6343 60.739 39.5803 60.1066 37.7234C83.4831 37.4168 102.455 28.9359 102.337 18.7061C102.227 8.4449 83.1007 0.580643 59.6131 0.580643C34.8055 0.580643 17.2153 9.36116 17.3287 19.6241C17.3886 25.0984 22.5356 29.0462 31.6552 32.6352C32.8503 33.1055 33.8391 33.2315 34.2826 32.3373C34.6834 31.536 34.1582 30.8357 33.0282 30.3416C25.3207 26.9698 21.8946 23.3774 21.9539 19.5114C22.0829 11.9357 38.3647 5.75884 58.3299 6.07819C78.2952 6.39522 94.1059 12.3561 93.9815 19.9341C93.8645 27.1812 80.2412 33.6072 60.405 33.8957C60.424 33.8957 66.6053 21.0356 66.9779 20.243C67.4323 19.2809 67.2757 18.6654 66.5333 18.3089C65.8376 17.9768 65.1344 18.2752 64.5988 19.2019L58.0092 30.5501C56.7773 27.3507 55.4976 24.3041 52.2465 22.7148C49.007 21.132 45.2664 21.4961 43.0941 23.6381C41.0029 25.6994 40.5278 28.7013 41.576 31.1963C43.4177 35.5814 48.9897 37.2885 53.6541 37.5248L41.8766 55.9626C40.9989 57.4212 41.9595 58.9413 44.5598 58.9413C47.1981 58.9413 48.4109 58.0581 49.1884 56.4346C49.1896 56.4323 57.0168 40.4135 57.0168 40.4135C58.0161 47.9688 58.0092 47.9688 58.8966 52.9612C59.7559 57.8067 62.4742 60.5119 67.0672 57.9612C68.6555 57.0763 69.7129 56.2245 70.4092 55.5015C72.6138 59.5858 75.9887 59.357 79.2098 58.201C83.0131 56.8376 86.0592 53.7544 85.9918 53.8212C85.3064 57.5431 86.4139 58.9355 87.9948 58.9355C89.7491 58.9355 91.4872 57.6389 93.0162 55.8964C94.604 58.1458 96.4786 58.9343 98.3147 58.9343C102.517 58.9343 106.112 55.2792 106.32 55.0934C106.839 57.8665 108.238 58.9332 109.83 58.9332C111.648 58.9332 113.525 57.8456 114.823 56.5136C118.838 52.391 122.319 47.7354 125.975 42.7593C126.171 42.4905 126.338 42.3139 126.661 42.3139C127.038 42.3139 127.242 42.6455 127.281 43.0299C127.609 46.1932 127.853 48.1808 127.813 51.0892C127.737 56.4195 122.497 55.4528 120.589 54.5127C119.443 53.9477 118.78 54.1504 118.163 54.9581C117.725 55.5323 117.482 56.5374 118.801 57.3538C122.042 59.357 125.49 59.1927 128.395 58.3357C132.401 57.1558 135.369 54.6602 135.313 54.7223C138.867 63.331 149.06 56.2808 150.811 54.8669C152.336 53.6377 153.33 52.6628 155.151 50.5382C154.202 52.5501 152.702 55.8836 152.492 56.4765C151.992 57.8572 152.639 58.9152 154.924 58.9152C157.465 58.9152 158.43 58.1696 159.012 56.4765C159.019 56.4579 161.591 47.4637 161.591 47.4637C163.289 41.8959 167.268 40.8792 169.117 44.7979C169.941 46.5428 171.085 49.3479 172.828 53.543C175.709 60.4603 182.269 59.1799 185.605 58.1319C186.706 57.7864 187.185 57.1384 186.957 56.5095ZM170.581 21.0176C170.859 20.3406 171.304 19.1305 172.1 18.5905C172.513 18.3089 173.148 18.2224 173.671 18.4512C174.26 18.7095 174.499 19.1636 174.52 19.7042C174.555 20.538 174.023 21.5855 173.484 22.4431C172.522 23.9818 165.453 33.9985 165.453 33.9985C165.453 33.9985 170.182 21.9838 170.581 21.0176ZM46.8853 31.3972C45.3943 29.6913 45.9765 28.0364 47.1197 27.1126C48.7208 25.8207 51.0722 26.6981 52.3681 28.2095C54.4592 30.647 55.5201 33.8104 55.5201 33.8104C51.8814 33.707 48.0516 32.7089 46.8853 31.3972ZM85.2961 49.9831C82.8784 54.0737 79.2472 55.0585 77.387 54.5249C75.8481 54.0824 75.5516 52.0508 76.9643 49.4437C76.9643 49.4437 79.9786 42.775 84.6234 42.8069C89.373 42.8324 85.2961 49.9831 85.2961 49.9831Z" />
</svg>
