<?xml version="1.0" encoding="UTF-8" standalone="no"?>
<!-- Created with Inkscape (http://www.inkscape.org/) -->

<svg
   xmlns:dc="http://purl.org/dc/elements/1.1/"
   xmlns:cc="http://creativecommons.org/ns#"
   xmlns:rdf="http://www.w3.org/1999/02/22-rdf-syntax-ns#"
   xmlns:svg="http://www.w3.org/2000/svg"
   xmlns="http://www.w3.org/2000/svg"
   xmlns:sodipodi="http://sodipodi.sourceforge.net/DTD/sodipodi-0.dtd"
   xmlns:inkscape="http://www.inkscape.org/namespaces/inkscape"
   id="svg2"
   version="1.1"
   inkscape:version="0.92.3 (2405546, 2018-03-11)"
   xml:space="preserve"
   width="560"
   height="217.39484"
   viewBox="0 0 560 217.39484"
   sodipodi:docname="Logo_Strunck-Weis.svg"><metadata
     id="metadata8"><rdf:RDF><cc:Work
         rdf:about=""><dc:format>image/svg+xml</dc:format><dc:type
           rdf:resource="http://purl.org/dc/dcmitype/StillImage" /><dc:title></dc:title></cc:Work></rdf:RDF></metadata><defs
     id="defs6" /><sodipodi:namedview
     pagecolor="#ffffff"
     bordercolor="#666666"
     borderopacity="1"
     objecttolerance="10"
     gridtolerance="10"
     guidetolerance="10"
     inkscape:pageopacity="0"
     inkscape:pageshadow="2"
     inkscape:window-width="1280"
     inkscape:window-height="749"
     id="namedview4"
     showgrid="false"
     inkscape:zoom="1"
     inkscape:cx="191.22482"
     inkscape:cy="71.259747"
     inkscape:window-x="0"
     inkscape:window-y="0"
     inkscape:window-maximized="1"
     inkscape:current-layer="g12"
     showborder="true"
     inkscape:snap-page="true"
     fit-margin-top="0"
     fit-margin-left="0"
     fit-margin-right="0"
     fit-margin-bottom="0" /><g
     id="g10"
     inkscape:groupmode="layer"
     inkscape:label="ink_ext_XXXXXX"
     transform="matrix(1.25,0,0,-1.25,-3.1112054,217.39483)"><g
       id="g12"
       transform="matrix(0.67227937,0,0,0.67227937,-1771.3976,0)"><g
         id="g885"
         inkscape:export-xdpi="96"
         inkscape:export-ydpi="96"
         transform="matrix(0.20129151,0,0,0.20129151,2638.6152,0)"><path
           inkscape:connector-curvature="0"
           id="path14"
           style="fill-opacity:1;fill-rule:evenodd;stroke:none"
           d="M 876.289,1275.23 H 173.809 C 75.7813,1276.94 1.19141,1196.27 1.19141,1088.87 c 0,-86.11 37.36329,-146.682 111.09359,-180.143 3.067,-1.223 6.211,-2.645 9.434,-4.153 13.203,-5.996 28.086,-12.789 49.023,-12.789 h 82.832 c 8.75,0 12.793,-7.844 12.793,-15.18 0,-7.332 -3.984,-15.261 -12.793,-15.261 H 4.21875 V 688.422 H 285.645 v 0 c 90.156,1.734 151.269,62.933 163.437,163.793 5.059,131.074 -59.512,209.535 -177.266,215.385 h -53.554 c -12.227,0 -19.492,9.1 -19.492,17.85 0,4.59 1.992,8.71 5.566,11.69 3.926,3.35 9.883,5.17 362.031,5.49 V 686.973 h 179.258 v 415.797 l 130.664,0.39 v 172.07" /><path
           inkscape:connector-curvature="0"
           id="path16"
           style="fill-opacity:1;fill-rule:nonzero;stroke:none"
           d="m 188.188,114.73 c -5.665,8.731 -12.661,15.372 -20.86,19.899 -8.234,4.519 -17.57,6.801 -27.953,6.801 -17.262,0 -31.348,-5.899 -42.2148,-17.551 C 86.2969,112.18 80.8203,97 80.8203,78.4219 c 0,-8.3203 1.4805,-16.1524 4.3633,-23.5508 2.9141,-7.3516 7.1172,-13.9102 12.6328,-19.5898 5.6246,-5.6915 11.8356,-9.961 18.8316,-12.7422 6.891,-2.8282 14.469,-4.3086 22.727,-4.3086 15.664,0 28.352,4.6406 38.18,13.8398 9.832,9.2383 14.84,21.2891 15.121,36.1602 h -48.164 v 10.9687 h 62.09 v -1.5781 c 0,-22.2109 -6.114,-39.5703 -18.239,-52.1914 C 176.238,12.8398 159.52,6.53906 138.227,6.53906 117.086,6.53906 99.9414,13.2617 86.8984,26.7695 73.7852,40.2188 67.293,57.8906 67.293,79.7305 c 0,10.0976 1.6289,19.4883 4.914,28.4295 3.2618,8.93 8.0078,16.668 14.2969,23.34 6.7188,7.18 14.3161,12.559 22.8321,16.059 8.461,3.601 17.922,5.371 28.355,5.371 14.133,0 26.317,-2.539 36.352,-7.668 10.172,-5.102 17.922,-12.641 23.379,-22.563 l -9.234,-7.969" /><path
           inkscape:connector-curvature="0"
           id="path18"
           style="fill-opacity:1;fill-rule:nonzero;stroke:none"
           d="m 243.238,10.2617 h -11.672 v 84.5586 h 11.672 v -13.289 c 2.848,5.3476 6.52,9.4179 11.149,12.2382 4.48,2.7618 9.769,4.1993 15.789,4.1993 6.125,0 11.351,-1.4375 15.726,-4.2383 4.371,-2.8516 7.75,-6.9688 10.094,-12.4805 3.34,5.6289 7.484,9.7617 12.344,12.5391 4.918,2.7422 10.605,4.1797 17.035,4.1797 9.027,0 16.063,-2.75 21.195,-8.1407 5.129,-5.4297 7.754,-12.8867 7.754,-22.3593 V 10.2617 H 342.59 v 52.5586 c 0,8.2383 -1.762,14.4414 -5.133,18.5899 -3.394,4.2382 -8.457,6.3086 -15.195,6.3086 -8.016,0 -13.977,-2.5704 -17.75,-7.9297 -3.809,-5.2305 -5.723,-13.5899 -5.723,-25.0391 V 10.2617 h -11.578 v 52.5586 c 0,8.6016 -1.59,14.918 -4.856,18.8985 -3.222,4.0703 -8.312,6 -15.085,6 -8.239,0 -14.29,-2.6172 -18.176,-7.9883 -3.949,-5.3321 -5.856,-13.6914 -5.856,-24.9805 V 10.2617" /><path
           inkscape:connector-curvature="0"
           id="path20"
           style="fill-opacity:1;fill-rule:nonzero;stroke:none"
           d="m 454.043,51.6602 c 0,11.0195 -2.551,19.75 -7.691,26 -5.192,6.4101 -12.122,9.4882 -20.977,9.4882 -8.777,0 -15.723,-2.9492 -20.805,-8.8671 -4.976,-5.9297 -7.48,-14.1016 -7.48,-24.4805 0,-11.2891 2.562,-20.1602 7.644,-26.6211 5.09,-6.4297 12.18,-9.668 21.036,-9.668 9.125,0 16.093,2.9571 21.015,8.7774 4.856,5.9218 7.258,14.332 7.258,25.3711 z M 397.305,10.2617 H 385.508 V 158.012 h 11.797 V 79.3984 c 2.836,6.0118 6.89,10.6836 12.011,13.8321 5.196,3.1679 11.368,4.7383 18.575,4.7383 11.511,0 20.976,-4.3086 28.297,-12.8204 7.312,-8.5586 10.914,-19.5898 10.914,-33.0976 0,-13.6992 -3.657,-24.6602 -11.086,-33.0117 -7.371,-8.3477 -17.161,-12.50004 -29.27,-12.50004 -6.828,0 -12.723,1.60938 -17.754,4.88284 -5.023,3.2265 -8.941,7.9883 -11.687,14.3281 V 10.2617" /><path
           inkscape:connector-curvature="0"
           id="path22"
           style="fill-opacity:1;fill-rule:nonzero;stroke:none"
           d="M 492.883,10.2617 V 149.789 h 12.664 V 93.1719 h 75.957 v 56.6171 h 12.633 V 10.2617 H 581.504 V 82.3281 H 505.547 V 10.2617 h -12.664" /><path
           inkscape:connector-curvature="0"
           id="path24"
           style="fill-opacity:1;fill-rule:nonzero;stroke:none"
           d="M 720.23,96.6914 726.461,101 c 4.918,3.449 8.633,6.969 11.035,10.801 2.402,3.711 3.656,7.621 3.656,11.66 0,4.527 -1.683,8.32 -5.023,11.449 -3.231,3.078 -7.266,4.59 -12.113,4.59 -5.293,0 -9.618,-1.488 -13.008,-4.469 -3.328,-2.992 -5.09,-6.84 -5.09,-11.57 0,-2.461 0.602,-5.082 1.762,-7.891 1.148,-2.75 2.726,-5.55 4.754,-8.261 z m 32.836,-57.7422 -36.55,44.5313 -6.282,-4.4922 c -9.328,-6.7969 -15.386,-12.3789 -18.07,-16.7188 -2.734,-4.3789 -4.09,-9.3906 -4.09,-15.1406 0,-8.1797 2.832,-15.0586 8.52,-20.7383 5.719,-5.6406 12.722,-8.4804 20.918,-8.4804 5.523,0 11.242,1.7382 17.093,5.1718 5.891,3.5586 12.004,8.8399 18.461,15.8672 z m 23.809,-28.6875 -17.371,20.4766 c -6.66,-7.8164 -13.441,-13.6367 -20.438,-17.3477 -6.918,-3.83201 -14.293,-5.67966 -22.152,-5.67966 -11.973,0 -21.801,3.62886 -29.492,10.98826 -7.656,7.2617 -11.484,16.5821 -11.484,27.8906 0,8.1407 2.734,15.7383 8.144,22.9297 5.461,7.1407 14.258,14.5508 26.488,22.1289 l -5.398,7.0704 c -4.317,5.7692 -7.262,10.5002 -8.688,14.1012 -1.425,3.629 -2.136,7.418 -2.136,11.442 0,7.179 2.847,13.097 8.511,17.847 5.688,4.723 12.954,7.129 21.914,7.129 8.086,0 14.637,-2.488 19.758,-7.258 5.141,-4.8 7.766,-11.039 7.766,-18.679 0,-6.281 -2.024,-12.082 -6.113,-17.442 -3.942,-5.32 -10.543,-10.9098 -19.723,-16.5973 l 34.414,-42.4804 c 2.941,3.6484 5.824,7.3593 8.629,11.2695 2.836,3.8711 5.457,7.7812 7.976,11.8203 l 8.172,-4.8516 c -3.168,-5.039 -6.261,-9.8203 -9.382,-14.1601 -3.047,-4.4375 -6.286,-8.5977 -9.571,-12.4492 l 23.985,-28.1485 h -13.809" /><path
           inkscape:connector-curvature="0"
           id="path26"
           style="fill-opacity:1;fill-rule:nonzero;stroke:none"
           d="m 978.336,124.262 c -6.941,6 -14.035,10.367 -21.234,13.258 -7.282,2.839 -14.86,4.218 -22.891,4.218 -18.027,0 -32.723,-5.66 -43.957,-17.168 -11.262,-11.359 -16.941,-26.2614 -16.941,-44.6403 0,-9.2383 1.371,-17.4609 4.105,-24.8711 2.832,-7.3984 6.98,-13.8594 12.664,-19.6094 5.578,-5.5781 12.008,-9.8398 19.176,-12.789 7.258,-2.9493 15.012,-4.4297 23.262,-4.4297 7.976,0 15.839,1.4179 23.418,4.1601 7.656,2.6797 14.859,6.75 21.628,12.1211 V 19.5898 c -6.882,-4.1992 -14.148,-7.3515 -21.785,-9.64058 -7.652,-2.27734 -15.23,-3.41016 -22.715,-3.41016 -10.113,0 -19.773,1.83203 -28.949,5.50004 -9.23,3.5625 -17.148,8.6093 -23.75,15.1914 -6.773,6.7383 -11.969,14.5312 -15.465,23.3984 -3.484,8.9727 -5.234,18.7031 -5.234,29.3008 0,10.4492 1.855,20.1523 5.469,29.1793 3.535,9 8.715,16.813 15.433,23.34 6.571,6.43 14.43,11.442 23.66,15.09 9.29,3.621 18.836,5.391 28.836,5.391 8.899,0 17.149,-1.231 24.727,-3.649 7.539,-2.449 14.543,-6.16 20.77,-11.011 l -0.227,-14.008" /><path
           inkscape:connector-curvature="0"
           id="path28"
           style="fill-opacity:1;fill-rule:nonzero;stroke:none"
           d="m 1042.9,17.5117 c 9.23,0 17.09,3.3672 23.52,10.0703 6.46,6.7383 9.66,14.9297 9.66,24.6485 0,9.8203 -3.2,18.0312 -9.54,24.7812 -6.44,6.6289 -14.37,10 -23.64,10 -9.29,0 -17.15,-3.3711 -23.6,-10 -6.38,-6.75 -9.61,-14.9609 -9.61,-24.7812 0,-9.7188 3.23,-17.9102 9.61,-24.6485 6.45,-6.7031 14.31,-10.0703 23.6,-10.0703 z m -0.45,-10.97264 c -6.01,0 -11.79,1.21094 -17.3,3.60154 -5.52,2.3789 -10.55,5.7578 -15.08,10.25 -4.26,4.1602 -7.49,8.9883 -9.67,14.4688 -2.232,5.4922 -3.396,11.3125 -3.396,17.5508 0,6.1484 1.164,11.9882 3.516,17.5 2.22,5.5781 5.51,10.4492 9.71,14.7187 4.37,4.293 9.29,7.6406 14.81,9.9024 5.51,2.2773 11.35,3.4375 17.41,3.4375 6.22,0 12.18,-1.1602 17.8,-3.4375 5.63,-2.2618 10.66,-5.6094 15.03,-9.9024 4.37,-4.3281 7.69,-9.2695 10.04,-14.7578 2.3,-5.5508 3.51,-11.3711 3.51,-17.4609 0,-6.1094 -1.21,-11.9297 -3.46,-17.4297 -2.28,-5.461 -5.57,-10.3321 -9.94,-14.5899 -4.41,-4.4922 -9.49,-7.8711 -15.18,-10.25 -5.66,-2.3906 -11.64,-3.60154 -17.8,-3.60154" /><path
           inkscape:connector-curvature="0"
           id="path30"
           style="fill-opacity:1;fill-rule:nonzero;stroke:none"
           d="m 1115.81,18.2305 c 0,2.7812 0.91,5.0781 2.77,6.9609 1.86,1.8594 4.14,2.8203 6.94,2.8203 2.66,0 5.03,-0.9609 6.89,-2.8203 1.9,-1.8828 2.78,-4.1797 2.78,-6.9609 0,-2.6914 -0.88,-5.0117 -2.78,-6.8907 -1.86,-1.85152 -4.23,-2.76949 -6.89,-2.76949 -2.8,0 -5.08,0.91797 -6.94,2.76949 -1.86,1.879 -2.77,4.1993 -2.77,6.8907" /><path
           inkscape:connector-curvature="0"
           id="path32"
           style="fill-opacity:1;fill-rule:nonzero;stroke:none"
           d="M 1227.21,10.2617 V 149.789 h 12.61 V 84.3984 l 63.13,65.3906 h 16.55 l -66.14,-66.707 69.31,-72.8203 h -18.41 l -64.44,70.8594 V 10.2617 h -12.61" /><path
           inkscape:connector-curvature="0"
           id="path34"
           style="fill-opacity:1;fill-rule:nonzero;stroke:none"
           d="m 1453.57,114.73 c -5.61,8.731 -12.61,15.372 -20.81,19.899 -8.23,4.519 -17.57,6.801 -27.95,6.801 -17.26,0 -31.35,-5.899 -42.21,-17.551 -10.87,-11.699 -16.29,-26.879 -16.29,-45.4571 0,-8.3203 1.42,-16.1524 4.32,-23.5508 2.9,-7.3516 7.1,-13.9102 12.62,-19.5898 5.63,-5.6915 11.84,-9.961 18.79,-12.7422 6.93,-2.8282 14.51,-4.3086 22.77,-4.3086 15.67,0 28.35,4.6406 38.18,13.8398 9.89,9.2383 14.84,21.2891 15.12,36.1602 H 1410 v 10.9687 h 62.04 v -1.5781 c 0,-22.2109 -6.12,-39.5703 -18.19,-52.1914 -12.18,-12.5899 -28.89,-18.89064 -50.13,-18.89064 -21.2,0 -38.35,6.72264 -51.39,20.23044 -13.11,13.4493 -19.66,31.1211 -19.66,52.961 0,10.0976 1.69,19.4883 4.97,28.4295 3.26,8.93 8.03,16.668 14.3,23.34 6.71,7.18 14.31,12.559 22.78,16.059 8.51,3.601 17.97,5.371 28.35,5.371 14.19,0 26.32,-2.539 36.41,-7.668 10.16,-5.102 17.92,-12.641 23.38,-22.563 l -9.29,-7.969" /><path
           inkscape:connector-curvature="0"
           id="path36"
           style="fill-opacity:1;fill-rule:nonzero;stroke:none"
           d="M 96.543,212.84 V 543.805 H 0 v 29.929 H 225.254 V 543.805 H 128.438 V 212.84 H 96.543" /><path
           inkscape:connector-curvature="0"
           id="path38"
           style="fill-opacity:1;fill-rule:nonzero;stroke:none"
           d="m 363.301,343.52 c -1.426,19.433 -7.91,34.511 -19.395,45.253 -11.484,10.715 -27.109,16.055 -46.738,16.055 -17.852,0 -32.91,-5.566 -44.961,-16.765 -12.051,-11.204 -19.043,-26.047 -20.918,-44.543 z M 398.32,318.266 H 229.297 c 0.859,-27.461 7.734,-49.004 20.625,-64.664 13.027,-15.672 30.254,-23.454 52.031,-23.454 15.625,0 29.395,4.153 41.211,12.653 11.836,8.488 21.66,21.269 29.512,38.379 l 27.07,-14.871 c -10.859,-21.579 -24.16,-37.411 -39.922,-47.559 -15.683,-10.211 -35.019,-15.27 -57.871,-15.27 -31.152,0 -56.348,10.442 -75.625,31.309 -19.258,20.859 -28.867,48.18 -28.867,82.063 0,34.91 9.551,62.996 28.652,84.402 19.102,21.406 44.004,32.121 74.922,32.121 29.395,0 52.93,-9.895 70.684,-29.621 17.734,-19.707 26.601,-46.082 26.601,-78.973 v -6.515" /><path
           inkscape:connector-curvature="0"
           id="path40"
           style="fill-opacity:1;fill-rule:nonzero;stroke:none"
           d="m 625.039,386.645 c -9.941,6.847 -20.449,12.011 -31.66,15.429 -11.133,3.438 -22.617,5.176 -34.512,5.176 -26.328,0 -47.363,-8.418 -62.988,-25.332 -15.684,-16.824 -23.477,-39.316 -23.477,-67.422 0,-24.941 8.067,-45.516 24.278,-61.586 16.25,-16.172 37.011,-24.23 62.187,-24.23 11.543,0 23.145,1.992 34.922,5.992 11.758,3.949 23.301,9.976 34.609,17.969 v -32.379 c -10.351,-5.883 -21.875,-10.321 -34.511,-13.282 -12.617,-2.929 -26.094,-4.398 -40.528,-4.398 -32.402,0 -59.023,10.629 -79.765,31.969 -20.801,21.289 -31.153,48.558 -31.153,81.84 0,34.629 10.801,62.851 32.461,84.511 21.661,21.614 49.805,32.473 84.473,32.473 12.793,0 24.805,-1.223 36.113,-3.723 11.192,-2.539 21.27,-6.054 30.02,-10.632 l -0.469,-32.375" /><path
           inkscape:connector-curvature="0"
           id="path42"
           style="fill-opacity:1;fill-rule:nonzero;stroke:none"
           d="m 683.496,212.84 v 361.539 h 28.086 V 392.582 c 8.633,13.586 19.219,23.848 31.719,30.586 12.558,6.797 27.012,10.207 43.262,10.207 24.16,0 42.929,-6.711 56.347,-20.129 13.477,-13.418 20.117,-32.148 20.117,-56.094 V 212.84 h -29.902 v 131.101 c 0,21.297 -4.434,37.039 -13.359,47.391 -8.868,10.293 -22.559,15.371 -41.094,15.371 -22.52,0 -39.121,-6.621 -49.688,-19.949 -10.644,-13.359 -15.918,-34.367 -15.918,-62.91 V 212.84 h -29.57" /><path
           inkscape:connector-curvature="0"
           id="path44"
           style="fill-opacity:1;fill-rule:nonzero;stroke:none"
           d="m 939.277,212.84 v 212.594 h 28.086 v -32.852 c 8.575,13.586 19.16,23.848 31.719,30.586 12.558,6.797 26.958,10.207 43.258,10.207 24.12,0 42.87,-6.711 56.29,-20.129 13.42,-13.418 20.14,-32.148 20.14,-56.094 V 212.84 h -29.92 v 131.101 c 0,21.297 -4.47,37.039 -13.3,47.391 -8.93,10.293 -22.56,15.371 -41.16,15.371 -22.51,0 -39.058,-6.621 -49.683,-19.949 -10.644,-13.359 -15.977,-34.367 -15.977,-62.91 V 212.84 h -29.453" /><path
           inkscape:connector-curvature="0"
           id="path46"
           style="fill-opacity:1;fill-rule:nonzero;stroke:none"
           d="m 1196.93,212.84 v 212.594 h 30.41 V 212.84 Z m -7.44,295.543 c 0,6.23 2.21,11.523 6.7,15.976 4.49,4.383 9.85,6.543 16.1,6.543 6.25,0 11.66,-2.16 16.21,-6.543 4.49,-4.453 6.75,-9.746 6.75,-15.976 0,-6.387 -2.16,-11.738 -6.6,-16.082 -4.37,-4.289 -9.82,-6.516 -16.36,-6.516 -6.43,0 -11.82,2.227 -16.22,6.516 -4.37,4.344 -6.58,9.695 -6.58,16.082" /><path
           inkscape:connector-curvature="0"
           id="path48"
           style="fill-opacity:1;fill-rule:nonzero;stroke:none"
           d="m 1307.91,212.84 v 361.539 h 29.45 V 331.266 l 105.98,94.168 h 40.7 L 1370.18,330.043 1492.46,212.84 H 1451.7 L 1337.36,322.875 V 212.84 h -29.45" /><path
           inkscape:connector-curvature="0"
           id="path50"
           style="fill-opacity:1;fill-rule:nonzero;stroke:none"
           d="m 3128.75,379.242 h -53.55 c -12.23,0 -19.52,9.133 -19.52,17.891 0,4.543 1.94,8.691 5.53,11.68 4.26,3.613 10.8,5.507 18.75,5.507 l 222.75,1.309 h 1.67 v 171.269 h -273.64 c -98.08,1.711 -172.67,-78.933 -172.67,-186.386 0,-86.102 37.42,-146.711 111.15,-180.121 3.01,-1.262 6.13,-2.692 9.37,-4.172 13.25,-6.02 28.15,-12.758 49.07,-12.758 h 82.83 c 8.71,0 12.79,-7.879 12.79,-15.231 0,-7.351 -4.02,-15.25 -12.79,-15.25 H 2861.13 V 0 h 281.37 v 0 c 90.23,1.82031 151.35,63 163.46,163.852 5.11,131.113 -59.48,209.543 -177.21,215.39 z M 2641.29,3.39063 h 170.9 V 585.629 h -170.9 z M 2237.75,446.273 2236.04,133.32 C 2239.1,58.3008 2306.31,1.80078 2392.21,1.80078 h 206.27 V 171.699 h -171.29 c -6.31,0 -9.67,8.442 -9.67,16.41 0,4.2 0.84,8.071 2.5,10.879 1.76,2.934 4.2,4.434 7.17,4.434 h 131.66 v 177.48 h -131.66 c -7.29,0 -10.98,8.438 -10.98,16.711 0,4.852 1.19,9.297 3.46,12.528 2.56,3.644 6.09,5.488 10.58,5.488 l 168.34,0.566 h 1.64 v 172.414 h -176.07 c -106.37,0 -179.53,-55.8 -186.41,-142.336 z m 8.64,134.239 -28.42,-94.434 -123.73,-409.8592 -0.16,-0.4805 -0.12,-0.457 c -6.42,-20.1211 -12.91,-33.1719 -21.83,-43.711 -15.86,-18.7695 -39.06,-29.10936 -65.22,-29.10936 -26.71,0 -51.11,11.50786 -67.07,31.66796 C 1931.37,44.75 1925,58.1719 1918.96,77.5 l -0.11,0.3398 -0.1,0.3516 L 1877.4,215.59 1836.19,77.3906 c -5.92,-20.4101 -12.17,-33.75 -21.03,-44.6601 -15.92,-19.5 -39.4,-30.26956 -66.06,-30.26956 -26.5,0 -49.71,10.44926 -65.51,29.52736 -8.63,10.4023 -14.78,22.8203 -21.15,42.8711 l -0.1,0.4219 -0.11,0.4296 -124.96,410.2811 -28.77,94.52 h 173.9 l 15.69,-52.11 50.39,-166.757 44.45,150.039 0.57,1.964 0.68,1.903 c 6.48,18.047 12.28,30.617 22.91,41.906 10.62,11.113 29.79,24.305 61.29,24.305 25.7,0 48.32,-10.262 63.85,-28.946 l 0.11,-0.078 0.1,-0.144 c 8.15,-9.922 14.04,-21.809 19.69,-39.68 l 0.21,-0.574 0.24,-0.656 44.74,-149.774 49.69,166.258 15.69,52.344 h 173.69" /><path
           inkscape:connector-curvature="0"
           id="path52"
           style="fill-opacity:1;fill-rule:evenodd;stroke:none"
           d="m 1340.1,669.434 c -67.54,-3.184 -129.3,18.902 -177.91,54.945 -61.74,55.434 -97.78,127.465 -75.73,212.66 6.31,20.242 15.77,35.988 29.75,53.133 31.54,37.808 66.29,91.418 18.93,117.998 -31.57,11.23 -59.48,-6.31 -61.29,-39.2 V 686.973 H 892.773 l -0.859,418.947 c 0.859,92.39 122.466,179.26 224.296,179.26 85.16,0 158.61,-44.57 198.24,-117.12 29.67,-56.71 27.85,-125.22 -1.81,-183.775 -4.96,-9.867 -10.8,-18.906 -17.11,-27.914 -16.21,-22.117 -39.63,-47.73 -43.28,-71.605 -5.84,-39.231 22.13,-72.973 74.31,-77.036 h 13.54 V 669.434" /><path
           inkscape:connector-curvature="0"
           id="path54"
           style="fill-opacity:1;fill-rule:nonzero;stroke:none"
           d="M 1627.54,1277.11 V 900.652 c 0,-30.754 -3.42,-43.406 -4.49,-46.589 -0.51,-1.481 -2.11,-6.137 -9.38,-12.848 l -0.29,-0.34 -0.33,-0.285 c -10.59,-9.84 -18.6,-11.231 -25.71,-11.231 -4.37,0 -10.62,0.766 -19.55,6.508 l -0.35,0.231 -0.27,0.195 c -5.53,3.555 -9.61,7.562 -12.68,12.652 -2.46,4.262 -4.1,9.098 -5.23,14.727 -1.04,5.027 -2.74,16.824 -2.74,39.199 V 1277.11 H 1366.93 V 902.215 c 0,-44.43 4.44,-79.477 13.52,-106.938 10.7,-32.207 29.96,-61.062 57.26,-85.707 42.02,-38.062 93.75,-58.218 149.63,-58.218 38.62,0 75.39,9.808 109.16,29.195 33.6,19.301 60.16,45.683 79.03,78.57 12.05,20.61 20.58,42.75 25.35,65.809 4.22,20.293 6.27,45.054 6.27,75.726 v 376.458 h -179.61" /><path
           inkscape:connector-curvature="0"
           id="path56"
           style="fill-opacity:1;fill-rule:nonzero;stroke:none"
           d="m 2137.52,1277.11 v -226.08 l -115.88,167.88 -0.45,0.66 -0.45,0.63 c -11.78,16.48 -18.36,24.19 -25.88,30.84 -16.75,14.7 -37.97,22.46 -61.29,22.46 -44.16,0 -80.33,-28.6 -90,-71.18 l -0.44,-1.96 -0.4,-2 c -1.36,-8.15 -1.93,-17.22 -1.93,-35.87 V 686.973 h 182.62 V 897.84 l 114.16,-164.758 0.04,-0.23 0.11,-0.2 c 11.78,-16.714 18.38,-24.988 25.08,-31.464 17.11,-16.633 40.14,-25.758 64.87,-25.758 36.5,0 68.16,20.269 82.61,52.906 6.55,14.75 9.26,30.98 9.26,54.348 v 494.426 h -182.03" /><path
           inkscape:connector-curvature="0"
           id="path58"
           style="fill-opacity:1;fill-rule:nonzero;stroke:none"
           d="m 2800.02,862.305 h -126.27 c -29.28,0 -43.95,1.679 -50.2,2.675 -32.4,5.602 -56.28,20.352 -75.09,46.305 -15.26,21.063 -22.35,42.953 -22.35,68.852 0,22.543 5.63,42.553 17.23,61.203 l 0.1,0.2 0.17,0.25 c 11.31,18.51 26.6,32.49 46.68,42.73 l 0.18,0.03 0.16,0.02 c 16.83,8.73 38.94,13.11 65.72,13.11 h 143.67 v 178.4 h -145.61 c -91.64,0 -167.48,-30.69 -225.29,-91.08 -54.86,-57.42 -82.67,-126.5 -82.67,-205.434 0,-51.027 12.79,-99.492 37.81,-144.121 28.2,-50.09 67.65,-88.894 117.34,-115.441 44.34,-23.883 95.35,-36.016 151.56,-36.016 5.92,0 13.03,0.055 21.66,0.313 h 125.2 v 178.004" /><path
           inkscape:connector-curvature="0"
           id="path60"
           style="fill-opacity:1;fill-rule:nonzero;stroke:none"
           d="m 2800.02,782.996 h -126.27 c -27.01,0 -48.14,1.223 -63.4,3.809 -53.03,9.039 -95.06,35.05 -126.15,77.976 -24.96,34.453 -37.4,72.914 -37.4,115.356 0,37.463 9.72,71.773 29.16,103.103 19.04,31.04 45.08,55 78.28,71.92 28.38,14.61 62.38,21.91 102.11,21.91 4.67,0 10.13,0 16.54,0 h 127.13 v 19.65 h -145.61 c -69.53,0 -125.52,-22.23 -168.04,-66.55 -40.32,-42.3 -60.49,-92.5 -60.49,-150.604 0,-37.468 9.2,-72.546 27.56,-105.234 20.7,-36.812 49.24,-64.957 85.56,-84.371 33.05,-17.77 71.08,-26.664 114.16,-26.664 5.53,0 12.41,0.168 20.59,0.371 h 126.27 v 19.328" /><path
           inkscape:connector-curvature="0"
           id="path62"
           style="fill-opacity:1;fill-rule:nonzero;stroke:none"
           d="m 1340.1,743.285 c -18.09,1.422 -33.21,3.215 -43.44,5.258 -31.11,6.422 -86.64,41.961 -105.92,89.684 -13.36,33.144 -8.12,67.543 15.63,102.05 61.29,89.153 60.04,123.293 51.23,165.273 -5.98,28.34 -35.65,120.08 -165.51,107.45 C 972.656,1201.35 971.563,1081.73 971.563,1080.59 V 686.973 h 20.195 v 393.617 c 0,4.18 1.25,102.51 102.262,112.37 110.14,10.78 137.31,-60.48 143.85,-91.61 7.95,-37.95 8.75,-66.92 -48.1,-149.67 -27.47,-39.856 -33.6,-81.782 -17.74,-121.071 22.17,-54.832 84.26,-94.402 120.59,-101.738 11.21,-2.359 27.85,-4.211 47.48,-5.801 v 20.215" /><path
           inkscape:connector-curvature="0"
           id="path64"
           style="fill-opacity:1;fill-rule:nonzero;stroke:none"
           d="m 2430.82,491.617 96.88,-0.871 v 25.09 h -103.54 c -14.14,0 -28.09,-1.398 -40.25,-4.035 -11.88,-2.528 -22.56,-6.172 -31.78,-10.801 -8.75,-4.355 -16.19,-9.551 -22.05,-15.437 -5.74,-5.461 -10.18,-11.739 -13.42,-19.161 -3.12,-6.711 -7.05,-16.457 -7.79,-25.187 V 134.57 c 0.51,-6.269 1.99,-12.269 4.43,-17.609 2.62,-5.859 6.25,-11.43 10.98,-16.32 4.67,-5.0902 10.56,-9.6996 17.5,-13.641 6.72,-3.8711 14.57,-7 23.26,-9.3008 8.36,-2.0508 17.79,-3.1484 27.17,-3.1484 h 133.67 v 24.3594 h -98.69 c -75.86,0 -86.19,8.7808 -93.54,43.1408 l 0.12,138.16 150.66,-1 v 27.297 l -150.54,-0.711 0.17,123.426 c 1.41,41.789 28.6,59.211 96.76,62.394" /><path
           inkscape:connector-curvature="0"
           id="path66"
           style="fill-opacity:1;fill-rule:nonzero;stroke:none"
           d="m 2714.51,74.3203 h 24.957 v 441.289 h -24.957 z" /><path
           inkscape:connector-curvature="0"
           id="path68"
           style="fill-opacity:1;fill-rule:nonzero;stroke:none"
           d="m 2008.01,118.949 h -1.37 l -111.33,372.668 c -2.71,8.524 -5,13.875 -7.05,16.348 -2.03,2.39 -5.33,3.64 -9.88,3.64 -5.41,0 -8.81,-0.828 -10.47,-2.617 -1.52,-1.648 -4.2,-7.453 -7.68,-17.254 l -110.5,-372.785 h -1.31 l -118.15,391.406 h -27.01 l 126.1,-414.2339 c 3.18,-10.0625 5.97,-16.5508 8.26,-19.3398 2.26,-2.7227 6.07,-4.1407 11.48,-4.1407 5.39,0 9.2,1.5 11.64,4.4883 2.4,2.8906 5.12,9.6328 8.09,19.9219 L 1876.5,457.992 h 1.37 L 1986,98.332 c 3.12,-10.2812 6.15,-17.1914 8.8,-20.6328 2.68,-3.3789 6.78,-5.0586 12.11,-5.0586 5.41,0 9.34,1.5 11.66,4.3203 2.45,2.8399 5.3,9.3789 8.48,19.5899 L 2152.01,510.355 H 2125 L 2008.01,118.949" /><path
           inkscape:connector-curvature="0"
           id="path70"
           style="fill-opacity:1;fill-rule:nonzero;stroke:none"
           d="m 208.945,1201.55 c -60.273,0 -125.0778,-35.05 -125.0778,-111.98 0,-72.91 51.2308,-119.953 130.5278,-119.953 99.96,0 138.847,-25.472 138.847,-90.765 0,-62.426 -31.445,-94.122 -93.359,-94.122 H 4.21875 V 762.953 H 259.883 c 74.258,0 115.078,41.133 115.078,115.899 0,112.48 -116.68,112.48 -160.566,112.48 -68.106,0 -108.809,36.758 -108.809,98.238 0,71.22 64.98,90.18 103.359,90.18 H 645.918 V 687.625 h 21.777 v 492.125 h 208.594 v 21.8 H 208.945" /><path
           inkscape:connector-curvature="0"
           id="path72"
           style="fill-opacity:1;fill-rule:nonzero;stroke:none"
           d="M 1706.86,1277.11 V 900.652 c 0,-30.695 -2.86,-54.55 -8.54,-71.718 -5.74,-17.114 -16.09,-32.52 -31.09,-46.25 -23.21,-21.805 -49.87,-32.637 -79.89,-32.637 -21.99,0 -42.87,6.426 -62.77,19.305 -16.25,10.375 -29.16,23.562 -38.71,39.628 -6.7,11.856 -11.54,24.844 -14.38,38.997 -2.91,14.156 -4.27,32.496 -4.27,54.894 v 374.239 h -20.98 V 902.215 c 0,-35.531 3.18,-62.852 9.55,-81.953 6.31,-19.129 18.09,-36.387 35.2,-51.879 27.69,-25.098 59.8,-37.664 96.36,-37.664 24.73,0 47.99,6.199 69.71,18.676 21.43,12.25 37.97,28.769 49.81,49.41 7.83,13.355 13.3,27.429 16.36,42.211 3.07,14.808 4.61,34.683 4.61,59.636 v 376.458 h -20.97" /><path
           inkscape:connector-curvature="0"
           id="path74"
           style="fill-opacity:1;fill-rule:nonzero;stroke:none"
           d="M 2216.82,1277.11 V 796.273 l -260.55,377.647 c -6.93,9.69 -11.48,15.52 -13.65,17.39 -2.21,1.97 -5.18,2.85 -9.05,2.85 -6.99,0 -11.25,-3.13 -12.67,-9.47 -0.51,-2.76 -0.74,-10.14 -0.74,-22.2 V 686.973 h 23.88 v 464.747 l 258.67,-373.529 c 7.8,-10.941 12.8,-17.597 15.2,-19.984 2.38,-2.246 5.68,-3.437 9.77,-3.437 5.05,0 8.41,1.906 10.07,5.656 1.7,3.867 2.56,11.258 2.56,22.258 v 494.426 h -23.49" /><path
           inkscape:connector-curvature="0"
           id="path76"
           style="fill-opacity:1;fill-rule:nonzero;stroke:none"
           d="m 3236.37,1022.95 c -30.08,21.46 -67.78,33.34 -114.85,36.24 l 143.28,163.59 45.77,52.31 h -239.48 l -58.26,-65.81 v 65.81 h -180.29 v -0.52 l 0.41,-589.644 h 180.33 v 194.551 h 91.47 l 0.91,0.054 c 0.45,0 0.98,0 1.49,0 10.29,0 17.23,-2.554 20.86,-4.633 V 684.926 h 179.37 v 183.832 c 0,85.562 -38.61,131.105 -71.01,154.192" /><path
           inkscape:connector-curvature="0"
           id="path78"
           style="fill-opacity:1;fill-rule:evenodd;stroke:none"
           d="m 3091.56,980.449 -143.26,1.391 256.8,293.25 h -27.97 l -243.67,-274.8 v 274.8 h -21.55 l 0.39,-590.164 h 21.61 v 273.918 h 169.88 c 56.29,1.39 101.76,-31.496 103.59,-73.883 V 684.926 h 20.69 v 183.832 c 0,92.754 -61.23,113.082 -136.51,111.691" /><path
           inkscape:connector-curvature="0"
           id="path80"
           style="fill-opacity:1;fill-rule:nonzero;stroke:none"
           d="m 3072.07,305.922 c -67.11,0 -107.18,36.094 -107.18,96.543 0,69.961 63.98,88.625 101.77,88.625 h 237.54 v 25.019 h -237.54 c -61.03,0 -126.71,-35.558 -126.71,-113.644 0,-73.828 51.86,-121.535 132.12,-121.535 98.77,0 137.26,-25 137.26,-89.16 0,-62.219 -30,-92.4809 -91.71,-92.4809 H 2860.75 V 74.2695 h 256.87 c 75.22,0 116.65,41.7305 116.65,117.5005 0,114.152 -117.83,114.152 -162.2,114.152" /></g></g></g></svg>
